<svg width="784" height="200" viewBox="0 0 784 200" fill="none" xmlns="http://www.w3.org/2000/svg">
<path d="M82.516 83.7743H50.4601C50.4601 92.276 53.8374 100.43 59.8491 106.441C65.8607 112.453 74.0143 115.83 82.516 115.83H146.627C146.627 111.62 145.798 107.452 144.187 103.563C142.576 99.6738 140.215 96.1399 137.239 93.1633C134.262 90.1866 130.728 87.8254 126.839 86.2144C122.95 84.6035 118.781 83.7743 114.572 83.7743H82.516Z" fill="#3B70DA"/>
<path d="M82.516 131.856H50.4601C50.4601 140.358 53.8374 148.511 59.8491 154.523C65.8607 160.535 74.0143 163.912 82.516 163.912H114.572C118.781 163.912 122.95 163.083 126.839 161.472C130.728 159.861 134.262 157.5 137.239 154.523C140.215 151.546 142.576 148.012 144.187 144.123C145.798 140.234 146.627 136.066 146.627 131.856H82.516Z" fill="#3B70DA"/>
<path d="M114.572 35.6939H82.516C74.0143 35.6939 65.8607 39.0712 59.8491 45.0828C53.8374 51.0944 50.4601 59.248 50.4601 67.7497H146.627C146.627 59.248 143.25 51.0944 137.239 45.0828C131.227 39.0712 123.073 35.6939 114.572 35.6939Z" fill="#3B70DA"/>
<path d="M98.5421 198.326C44.2201 198.326 0 154.127 0 99.7837C0 45.4402 44.1985 1.24161 98.5421 1.24161C152.886 1.24161 197.084 45.4348 197.084 99.7837C197.084 154.133 152.869 198.326 98.5421 198.326ZM98.5421 11.5482C49.8849 11.5482 10.2958 51.1372 10.2958 99.7998C10.2958 148.462 49.8849 188.057 98.5421 188.057C147.199 188.057 186.794 148.462 186.794 99.7998C186.794 51.1372 147.205 11.5482 98.5421 11.5482Z" fill="#3B70DA"/>
<path d="M718.314 196.867V84.0825H745.404V196.867H718.314ZM681.087 97.3512V71.3665H783.368V97.3512H681.087Z" fill="#3E4654"/>
<path d="M576.443 196.867V71.3665H622.699C631.668 71.3665 639.654 73.148 646.657 76.7109C653.783 80.2738 659.373 85.3111 663.427 91.8226C667.604 98.3341 669.693 106.074 669.693 115.043C669.693 124.135 667.604 131.936 663.427 138.448C659.373 144.959 653.783 149.996 646.657 153.559C639.654 156.999 631.668 158.719 622.699 158.719H597.452V132.735H620.672C627.43 132.735 632.651 131.26 636.337 128.312C640.145 125.24 642.05 120.817 642.05 115.043C642.05 109.269 640.145 104.907 636.337 101.958C632.651 98.887 627.43 97.3512 620.672 97.3512H597.268L603.349 91.2697V196.867H576.443ZM641.497 196.867L614.775 145.819H644.261L670.983 196.867H641.497Z" fill="#3E4654"/>
<path d="M434.61 134.209C434.61 124.749 436.145 116.087 439.217 108.224C442.411 100.238 446.895 93.3583 452.67 87.5839C458.444 81.6867 465.263 77.1409 473.126 73.9466C480.989 70.7522 489.712 69.1551 499.295 69.1551C508.632 69.1551 517.232 70.7522 525.095 73.9466C533.081 77.1409 539.961 81.6867 545.736 87.5839C551.51 93.3583 555.933 100.238 559.004 108.224C562.199 116.087 563.796 124.749 563.796 134.209C563.796 143.669 562.199 152.392 559.004 160.378C555.933 168.241 551.51 175.121 545.736 181.018C539.961 186.793 533.081 191.277 525.095 194.471C517.232 197.543 508.632 199.079 499.295 199.079C489.712 199.079 480.989 197.543 473.126 194.471C465.263 191.277 458.444 186.793 452.67 181.018C446.895 175.121 442.411 168.241 439.217 160.378C436.145 152.392 434.61 143.669 434.61 134.209ZM462.069 134.209C462.069 141.949 463.666 148.706 466.86 154.481C470.054 160.255 474.416 164.739 479.945 167.934C485.596 171.128 492.046 172.725 499.295 172.725C506.421 172.725 512.748 171.128 518.277 167.934C523.928 164.739 528.351 160.255 531.545 154.481C534.74 148.706 536.337 141.888 536.337 134.025C536.337 126.285 534.74 119.527 531.545 113.753C528.351 107.979 523.928 103.556 518.277 100.484C512.748 97.2898 506.421 95.6926 499.295 95.6926C492.046 95.6926 485.596 97.2898 479.945 100.484C474.416 103.678 470.054 108.163 466.86 113.937C463.666 119.589 462.069 126.346 462.069 134.209Z" fill="#3E4654"/>
<path d="M353.234 136.236H375.717C382.474 136.236 387.696 134.578 391.381 131.26C395.19 127.82 397.094 123.029 397.094 116.886C397.094 110.374 395.19 105.521 391.381 102.327C387.696 99.0098 382.535 97.3512 375.901 97.3512H353.049L359.131 91.2697V196.867H332.225V71.3665H377.744C387.204 71.3665 395.436 73.2094 402.439 76.8952C409.442 80.581 414.847 85.8639 418.656 92.744C422.588 99.5013 424.553 107.549 424.553 116.886C424.553 126.223 422.588 134.332 418.656 141.212C414.847 147.969 409.38 153.191 402.254 156.876C395.251 160.439 387.081 162.221 377.744 162.221H353.234V136.236Z" fill="#3E4654"/>
<path d="M273.807 200C266.558 200 259.739 198.956 253.351 196.867C247.085 194.656 241.433 191.4 236.396 187.1C231.482 182.677 227.304 177.025 223.864 170.145L244.873 157.061C248.436 162.958 252.798 167.442 257.958 170.514C263.118 173.585 268.892 175.121 275.281 175.121C280.81 175.121 284.987 173.954 287.813 171.62C290.638 169.285 292.051 166.214 292.051 162.405C292.051 159.948 291.375 157.859 290.024 156.139C288.795 154.296 286.523 152.576 283.205 150.979C279.888 149.382 275.097 147.846 268.831 146.372C258.633 143.915 250.525 140.843 244.505 137.158C238.607 133.472 234.43 129.11 231.973 124.073C229.516 118.913 228.287 113.2 228.287 106.934C228.287 99.5627 230.069 93.0512 233.632 87.3997C237.317 81.6253 242.539 77.0795 249.296 73.7623C256.053 70.4451 264.101 68.7865 273.438 68.7865C284.004 68.7865 292.911 70.8751 300.16 75.0523C307.531 79.2295 313.429 84.6968 317.852 91.454L296.843 106.013C293.648 101.836 289.778 98.8255 285.232 96.9827C280.81 95.1398 276.387 94.2183 271.964 94.2183C266.681 94.2183 262.565 95.2626 259.616 97.3512C256.791 99.317 255.378 102.143 255.378 105.829C255.378 109.269 256.852 112.156 259.801 114.49C262.749 116.702 268.524 118.79 277.124 120.756C287.444 123.213 295.737 126.223 302.003 129.786C308.269 133.349 312.814 137.71 315.64 142.871C318.466 148.031 319.879 154.235 319.879 161.484C319.879 168.855 317.974 175.428 314.166 181.203C310.48 186.977 305.197 191.584 298.317 195.024C291.437 198.341 283.267 200 273.807 200Z" fill="#3E4654"/>
<path d="M568.39 41.3403L546.139 11.215L549.897 10.2008V41.3403H541.188V0.715843H549.122L570.896 30.3043L567.555 30.9008V0.715843H576.264V41.3403H568.39Z" fill="#3E4654"/>
<path d="M487.45 21.0579C487.45 17.9957 487.947 15.1919 488.941 12.6467C489.975 10.0617 491.427 7.83457 493.296 5.96541C495.165 4.05648 497.372 2.58501 499.917 1.551C502.463 0.517002 505.286 0 508.388 0C511.411 0 514.195 0.517002 516.74 1.551C519.325 2.58501 521.552 4.05648 523.421 5.96541C525.29 7.83457 526.722 10.0617 527.716 12.6467C528.75 15.1919 529.267 17.9957 529.267 21.0579C529.267 24.1201 528.75 26.9438 527.716 29.5288C526.722 32.074 525.29 34.3011 523.421 36.21C521.552 38.0792 519.325 39.5308 516.74 40.5648C514.195 41.559 511.411 42.0561 508.388 42.0561C505.286 42.0561 502.463 41.559 499.917 40.5648C497.372 39.5308 495.165 38.0792 493.296 36.21C491.427 34.3011 489.975 32.074 488.941 29.5288C487.947 26.9438 487.45 24.1201 487.45 21.0579ZM496.338 21.0579C496.338 23.5634 496.855 25.7507 497.889 27.6199C498.923 29.489 500.335 30.9406 502.125 31.9746C503.954 33.0086 506.042 33.5256 508.388 33.5256C510.695 33.5256 512.743 33.0086 514.533 31.9746C516.362 30.9406 517.794 29.489 518.828 27.6199C519.862 25.7507 520.379 23.5435 520.379 20.9982C520.379 18.4928 519.862 16.3055 518.828 14.4363C517.794 12.5671 516.362 11.1354 514.533 10.1412C512.743 9.10719 510.695 8.59019 508.388 8.59019C506.042 8.59019 503.954 9.10719 502.125 10.1412C500.335 11.1752 498.923 12.6268 497.889 14.4959C496.855 16.3253 496.338 18.5127 496.338 21.0579Z" fill="#3E4654"/>
<path d="M475.503 41.3403H466.794V0.715843H475.503V41.3403Z" fill="#3E4654"/>
<path d="M434.409 41.3403V4.83198H443.178V41.3403H434.409ZM422.359 9.12707V0.715843H455.467V9.12707H422.359Z" fill="#3E4654"/>
<path d="M389.451 25.7109H408.54V33.7642H389.451V25.7109ZM380.563 41.3403L394.999 0.715843H404.603L418.324 41.3403H409.495L398.399 6.68126H401.263L389.332 41.3403H380.563Z" fill="#3E4654"/>
<path d="M353.761 41.3403L339.981 0.715843H348.869L360.502 35.3749H357.102L368.794 0.715843H377.563L363.723 41.3403H353.761Z" fill="#3E4654"/>
<path d="M309.927 25.1144V16.8225H326.63V25.1144H309.927ZM309.748 9.00776L312.79 5.48817V36.568L309.45 33.0484H329.911V41.3403H304.081V0.715843H329.911V9.00776H309.748Z" fill="#3E4654"/>
<path d="M292.105 41.3403H267.409V0.715843H276.118V36.21L273.911 32.9291H292.105V41.3403Z" fill="#3E4654"/>
<path d="M234.193 25.1144V16.8225H250.896V25.1144H234.193ZM234.014 9.00776L237.056 5.48817V36.568L233.716 33.0484H254.177V41.3403H228.347V0.715843H254.177V9.00776H234.014Z" fill="#3E4654"/>
</svg>
